<?xml version="1.0" encoding="UTF-8"?>
<svg version="1.1" xmlns="http://www.w3.org/2000/svg" width="512" height="512">
<path d="M0 0 C0.97431473 -0.00990463 1.94862946 -0.01980927 2.95246887 -0.03001404 C4.01491821 -0.02551239 5.07736755 -0.02101074 6.17201233 -0.01637268 C7.29597916 -0.02323593 8.41994598 -0.03009918 9.57797241 -0.03717041 C13.29833053 -0.05549183 17.01826911 -0.05159312 20.73866272 -0.0459137 C23.32171771 -0.05047292 25.90477149 -0.05577771 28.48782349 -0.0617981 C33.90409347 -0.07073974 39.32020198 -0.06852737 44.73646545 -0.05836487 C50.99297324 -0.04688507 57.24905231 -0.06095678 63.50550359 -0.08776134 C69.52941433 -0.11260124 75.55310467 -0.11509449 81.57707405 -0.10864449 C84.13795752 -0.10849094 86.6988491 -0.11456285 89.25970268 -0.12693596 C92.83887108 -0.14179183 96.41709258 -0.13120731 99.99623108 -0.11402893 C101.05665619 -0.1236969 102.1170813 -0.13336487 103.2096405 -0.14332581 C110.39460829 -0.07101442 110.39460829 -0.07101442 114.28335571 2.29403687 C117.70341228 6.13242827 117.29220708 9.51331167 117.28304005 14.42849445 C117.28539228 15.273491 117.28774451 16.11848755 117.29016802 16.98909006 C117.29688289 19.85156502 117.29639905 22.71399485 117.29598999 25.57647705 C117.29928706 27.63704059 117.30301229 29.69760348 117.30713147 31.75816554 C117.31717729 37.44478165 117.3208724 43.1313872 117.32352078 48.81801093 C117.32741615 54.94151424 117.33699494 61.06500913 117.34573364 67.18850708 C117.36458352 81.28828392 117.37475692 95.38805884 117.38319432 109.48784473 C117.38739833 116.4521274 117.39262063 123.41640919 117.39787885 130.38069113 C117.41576972 154.20999079 117.43076703 178.0392907 117.43819904 201.86859608 C117.4386738 203.36503807 117.43914969 204.86148007 117.4396267 206.35792206 C117.43986308 207.10003812 117.44009946 207.84215418 117.440343 208.60675861 C117.44154422 212.36682162 117.44275966 216.12688463 117.44398499 219.88694763 C117.44434521 221.0062503 117.44434521 221.0062503 117.44471271 222.14816514 C117.45260854 246.35077831 117.47604586 270.55334252 117.50854093 294.75593431 C117.54281662 320.33132486 117.56254805 345.90668676 117.56584328 371.48210067 C117.56626084 374.28812294 117.56674041 377.09414521 117.56726646 379.90016747 C117.56738966 380.59111259 117.56751285 381.28205771 117.56763977 381.99394057 C117.56997455 393.12669076 117.58564986 404.2593842 117.60610831 415.39211414 C117.6263354 426.57612321 117.63152421 437.76006494 117.62233768 448.94409517 C117.61777597 455.00642111 117.61978746 461.06856229 117.63909912 467.13086319 C117.65661028 472.67563495 117.65583172 478.22008552 117.64020183 483.76486012 C117.63780734 485.77564702 117.64224358 487.78645546 117.65403048 489.79720924 C117.66901751 492.52164948 117.65956894 495.24493211 117.6438036 497.96934223 C117.6540258 498.75780819 117.66424801 499.54627415 117.67477998 500.35863301 C117.62745936 504.08184323 117.27715146 506.18812877 115.24288243 509.35132617 C112.23091172 512.28029101 110.62409975 512.51423777 106.53814697 512.53485107 C105.56658157 512.54200638 104.59501617 512.54916168 103.5940094 512.55653381 C101.98954956 512.56056717 101.98954956 512.56056717 100.35267639 512.56468201 C98.66716423 512.5745388 98.66716423 512.5745388 96.94760132 512.58459473 C93.21649617 512.6043604 89.48543131 512.61599704 85.75428772 512.6259613 C84.48258539 512.63003683 83.21088306 512.63411236 81.9006443 512.63831139 C75.86556142 512.65703107 69.83050307 512.67159431 63.79539889 512.67992336 C56.82973318 512.68969544 49.86438527 512.71601363 42.89883155 512.75642425 C36.86535052 512.79022574 30.83202377 512.80206857 24.79844093 512.80612755 C22.23196061 512.81100793 19.66548404 512.82266286 17.09906578 512.84116554 C13.51016621 512.86543333 9.92210111 512.86461419 6.33314514 512.85765076 C5.26957794 512.87046082 4.20601074 512.88327087 3.11021423 512.89646912 C-1.2540296 512.86554693 -4.06806086 512.82506102 -7.92520142 510.67080688 C-11.97752333 505.86703595 -12.14002238 501.1531962 -12.10565662 495.0742197 C-12.1088631 494.23619146 -12.11206958 493.39816322 -12.11537322 492.53474018 C-12.12370432 489.71396841 -12.11773806 486.89340725 -12.11187744 484.07263184 C-12.1148967 482.03493991 -12.11878505 479.99724911 -12.12347001 477.95956033 C-12.13378774 472.35004388 -12.1315586 466.74059107 -12.12728941 461.1310693 C-12.12482904 455.08530743 -12.13382775 449.03956115 -12.1413269 442.99380493 C-12.15409493 431.14589178 -12.15587084 419.29800071 -12.15352664 407.4500838 C-12.15169495 397.8230579 -12.15345099 388.19603866 -12.15775108 378.5690136 C-12.15835348 377.1865705 -12.15895468 375.8041274 -12.15955469 374.42168431 C-12.16046193 372.33855312 -12.16137059 370.25542193 -12.16228704 368.17229075 C-12.1707182 348.80122373 -12.17505111 329.43015921 -12.17088032 310.05909061 C-12.17072394 309.32863904 -12.17056757 308.59818746 -12.17040645 307.84560098 C-12.16960065 304.14326754 -12.16875488 300.44093411 -12.16789315 296.73860068 C-12.16772206 296.00328737 -12.16755097 295.26797406 -12.1673747 294.51037852 C-12.16702805 293.02339625 -12.16667952 291.53641397 -12.16632911 290.0494317 C-12.16097099 266.90801569 -12.16890425 243.76663778 -12.18736267 220.62522888 C-12.20806997 194.63386069 -12.21880785 168.6425161 -12.21478719 142.6511392 C-12.21439183 139.88081356 -12.21403028 137.11048792 -12.2136898 134.34016228 C-12.21359907 133.65802298 -12.21350834 132.97588368 -12.21341486 132.2730735 C-12.212248 121.96737907 -12.21890385 111.66170845 -12.22950172 101.35601997 C-12.24153915 89.63841537 -12.24285058 77.92085408 -12.23071156 66.20324547 C-12.22480412 60.22181889 -12.22377478 54.24049503 -12.23571396 48.25907516 C-12.2465094 42.78719408 -12.24354538 37.31550224 -12.22945227 31.84363025 C-12.22678779 29.86050986 -12.2292263 27.87737495 -12.23718814 25.89426876 C-12.24723877 23.20494232 -12.23891977 20.51628083 -12.22591114 17.82698154 C-12.23322049 17.05162622 -12.24052983 16.27627089 -12.24806067 15.47741994 C-12.19106592 9.8181889 -11.06478455 5.56189244 -6.96687984 1.53691006 C-4.45323232 0.17151762 -2.85254003 0.00820045 0 0 Z " fill="#289143" transform="translate(202.85118103027344,-0.3876800537109375)"/>
<path d="M0 0 C1.0852446 -0.00525696 2.1704892 -0.01051392 3.28862 -0.01593018 C6.86826051 -0.02911119 10.44745474 -0.02039907 14.02709961 -0.01025391 C16.5176146 -0.01227503 19.00812901 -0.01518679 21.49864197 -0.01895142 C27.38222269 -0.02393787 33.2656419 -0.01345302 39.14919895 0.00250089 C43.83878904 0.01376984 48.52819034 0.00977515 53.21777344 -0.00292969 C59.68917249 -0.02031042 66.16038908 -0.02305074 72.63180351 -0.0132637 C75.0977832 -0.01126195 77.56377067 -0.01372009 80.02974129 -0.02070236 C83.47446452 -0.02831623 86.91860169 -0.01671312 90.36328125 0 C91.38316132 -0.00607269 92.40304138 -0.01214539 93.4538269 -0.0184021 C102.23076489 0.06053607 102.23076489 0.06053607 106.11694336 3.38818359 C109.36136076 6.81925506 109.49323842 9.35522001 109.49726009 14.004035 C109.50192001 14.67068325 109.50657993 15.3373315 109.51138106 16.02418122 C109.52337483 18.26810445 109.51391921 20.51142707 109.50462341 22.75535583 C109.50879443 24.3762949 109.51427066 25.99723104 109.52094322 27.61816174 C109.53544711 32.08034764 109.53113775 36.54234962 109.52377641 41.00454581 C109.51905923 45.81376819 109.5315417 50.62294993 109.54179382 55.43215942 C109.55901563 64.85682873 109.55981484 74.28143147 109.55458092 83.70611244 C109.55054431 91.36425806 109.55197671 99.02238396 109.55732918 106.68052864 C109.5580776 107.76926003 109.55882602 108.85799143 109.55959712 109.97971468 C109.56112855 112.19126089 109.5626669 114.4028071 109.56421209 116.61435331 C109.57794934 137.36748818 109.57249082 158.12058538 109.56102688 178.8737194 C109.55109295 197.87201273 109.56403578 216.87020869 109.58796107 235.86848699 C109.61232624 255.36249185 109.62196632 274.8564513 109.61530834 294.35047108 C109.61181041 305.30027508 109.614086 316.25000416 109.63155937 327.19979668 C109.64624909 336.52106035 109.6469592 345.84219636 109.62948846 355.16345745 C109.62094943 359.92153574 109.61889941 364.67938567 109.63414001 369.43745232 C109.64791102 373.79051606 109.6433225 378.14315418 109.62390078 382.49619282 C109.62011701 384.07353947 109.62313062 385.65091959 109.63351243 387.22823661 C109.64659919 389.3681722 109.635176 391.50662053 109.61751461 393.64649105 C109.61740727 394.83626488 109.61729994 396.0260387 109.61718935 397.25186628 C109.01510877 401.02664068 107.76332814 402.68184898 105.11694336 405.38818359 C102.71030377 406.59150339 101.19478615 406.52179127 98.50627136 406.53535461 C97.53470596 406.54250992 96.56314056 406.54966522 95.56213379 406.55703735 C94.4924939 406.55972626 93.422854 406.56241516 92.32080078 406.56518555 C91.19712601 406.57175674 90.07345123 406.57832794 88.91572571 406.58509827 C85.18462056 406.60486394 81.4535557 406.61650058 77.72241211 406.62646484 C76.45070978 406.63054037 75.17900745 406.6346159 73.86876869 406.63881493 C67.83368581 406.65753461 61.79862746 406.67209785 55.76352328 406.6804269 C48.79785757 406.69019898 41.83250966 406.71651717 34.86695594 406.75692779 C28.83347491 406.79072928 22.80014816 406.80257211 16.76656532 406.80663109 C14.200085 406.81151147 11.63360843 406.8231664 9.06719017 406.84166908 C5.4782906 406.86593687 1.8902255 406.86511773 -1.69873047 406.8581543 C-2.76229767 406.87096436 -3.82586487 406.88377441 -4.92166138 406.89697266 C-9.28590521 406.86605047 -12.09993647 406.82556456 -15.95707703 404.67131042 C-19.64311906 400.30174109 -20.13337254 396.36306577 -20.13753223 390.74857521 C-20.14073871 390.09150255 -20.14394519 389.43442989 -20.14724883 388.75744593 C-20.15556063 386.55220797 -20.14962052 384.34724077 -20.14375305 382.14199829 C-20.1467732 380.5463723 -20.150662 378.95074776 -20.15534562 377.35512578 C-20.165652 372.96750288 -20.16343709 368.57996146 -20.15916502 364.19233179 C-20.15670258 359.46148955 -20.16570598 354.73066717 -20.17320251 349.99983215 C-20.18596506 340.73038398 -20.18774126 331.46096475 -20.18540225 322.19150926 C-20.18362063 314.65831302 -20.18536538 307.12512558 -20.18962669 299.59193039 C-20.19022188 298.5205641 -20.19081707 297.44919781 -20.1914303 296.34536587 C-20.19264202 294.16901466 -20.19385616 291.99266345 -20.19507267 289.81631224 C-20.20595425 269.3969451 -20.20378282 248.97759446 -20.19768783 228.55822639 C-20.19251839 209.87175769 -20.20377372 191.18534112 -20.22278605 172.49888273 C-20.24215106 153.31898522 -20.25042278 134.13911238 -20.2466628 114.95920503 C-20.24474868 104.18821585 -20.24725872 93.41727104 -20.26137733 82.64628983 C-20.27327509 73.47664233 -20.2747141 64.3070665 -20.26258717 55.13741805 C-20.25668713 50.45810378 -20.25563007 45.77892072 -20.26758957 41.0996151 C-20.27840997 36.81625181 -20.27539098 32.53312989 -20.26132789 28.24977808 C-20.25867032 26.70001526 -20.2610806 25.15023375 -20.26906375 23.60048921 C-20.27916573 21.49319316 -20.27075233 19.38673678 -20.25778675 17.27947426 C-20.25784177 16.10922852 -20.25789678 14.93898278 -20.25795346 13.73327506 C-19.80196215 9.66460188 -18.74820257 7.02974453 -16.88305664 3.38818359 C-11.78403152 -0.5027016 -6.13970224 -0.03663046 0 0 Z " fill="#1A6C30" transform="translate(402.883056640625,105.61181640625)"/>
<path d="M0 0 C0.93783829 -0.00571014 1.87567657 -0.01142029 2.8419342 -0.01730347 C3.86900482 -0.01842133 4.89607544 -0.01953918 5.95426941 -0.02069092 C7.57906975 -0.02813828 7.57906975 -0.02813828 9.23669434 -0.03573608 C12.82769908 -0.05036643 16.41865965 -0.05716118 20.00968933 -0.06268311 C22.50209556 -0.06843383 24.99450177 -0.07419157 27.48690796 -0.07995605 C32.04792072 -0.08912439 36.60892079 -0.0954237 41.16994172 -0.09845281 C47.2094484 -0.10248618 53.24879961 -0.11476168 59.28825378 -0.14080811 C65.76913655 -0.16832863 72.24988584 -0.18120014 78.73082542 -0.18312836 C81.20157163 -0.18615649 83.67231695 -0.19419036 86.14303017 -0.20731354 C89.59979846 -0.22436344 93.0560699 -0.22249607 96.51286316 -0.21600342 C98.04436005 -0.22982559 98.04436005 -0.22982559 99.60679626 -0.243927 C104.86599963 -0.21297553 109.08990603 -0.17559808 113.42765808 3.14044189 C116.68457677 9.03497303 116.85382993 14.13022623 116.80860901 20.77449036 C116.81328898 21.833878 116.81796895 22.89326564 116.82279074 23.98475593 C116.8347401 27.52839709 116.82528346 31.0716515 116.81584167 34.61529541 C116.81990736 37.1582868 116.82524922 39.70127642 116.83177185 42.2442627 C116.84403066 48.43034331 116.84223743 54.6162811 116.83353393 60.80236358 C116.82675327 65.83028191 116.82584231 70.85816964 116.82910538 75.88609123 C116.82956508 76.60222903 116.83002478 77.31836682 116.8304984 78.05620576 C116.8314576 79.51110364 116.83243024 80.96600152 116.83341618 82.42089938 C116.8419661 96.05598349 116.83214187 109.69100704 116.81601508 123.32608121 C116.80260938 135.02261391 116.80494282 146.71905729 116.81877136 158.41558838 C116.83482926 172.0040965 116.84114519 185.5925516 116.83193457 199.18106788 C116.83097894 200.63024802 116.83003583 202.07942817 116.82910538 203.52860832 C116.82864255 204.24160369 116.82817972 204.95459907 116.82770287 205.68920036 C116.82511383 210.71090466 116.82948208 215.73257528 116.83654404 220.75427437 C116.84584076 227.5135423 116.83921325 234.27261545 116.82186127 241.03187561 C116.81789028 243.51430925 116.81904088 245.99675708 116.82564926 248.4791851 C116.83383026 251.8641085 116.82358421 255.24848843 116.80860901 258.63337708 C116.81530117 259.6188808 116.82199334 260.60438452 116.8288883 261.61975199 C116.78386095 266.85635026 116.47414357 270.67391812 113.42765808 275.14044189 C110.55388028 277.96308074 108.55548946 278.51668312 104.57647705 278.52812195 C103.60216232 278.53802658 102.6278476 278.54793121 101.62400818 278.55813599 C100.56155884 278.55363434 99.4991095 278.54913269 98.40446472 278.54449463 C96.71851448 278.55478951 96.71851448 278.55478951 94.99850464 278.56529236 C91.27814652 278.58361378 87.55820795 278.57971507 83.83781433 278.57403564 C81.25475934 278.57859487 78.67170556 278.58389966 76.08865356 278.58992004 C70.67238358 278.59886169 65.25627507 278.59664932 59.8400116 278.58648682 C53.58350381 278.57500702 47.32742475 278.58907873 41.07097346 278.61588329 C35.04706272 278.64072319 29.02337238 278.64321644 22.999403 278.63676643 C20.43851954 278.63661288 17.87762795 278.6426848 15.31677437 278.65505791 C11.73760597 278.66991377 8.15938447 278.65932926 4.58024597 278.64215088 C3.51982086 278.65181885 2.45939575 278.66148682 1.36683655 278.67144775 C-5.81813124 278.59913636 -5.81813124 278.59913636 -9.70687866 276.23408508 C-12.36229844 273.25385939 -12.69802467 271.66696082 -12.70935631 267.7725029 C-12.71443085 266.84912117 -12.71950539 265.92573944 -12.72473371 264.97437644 C-12.72523147 263.95319354 -12.72572922 262.93201065 -12.72624207 261.87988281 C-12.73062432 260.80026598 -12.73500657 259.72064915 -12.73952162 258.60831666 C-12.75294794 254.9663541 -12.75909706 251.32441575 -12.76521301 247.68243408 C-12.77311091 245.08106882 -12.78137966 242.47970466 -12.78999329 239.87834167 C-12.81452863 232.05409686 -12.8291461 224.22984566 -12.84205335 216.4055742 C-12.84576446 214.19622117 -12.84973776 211.98686877 -12.85380602 209.77751637 C-12.87904172 196.06232516 -12.90109824 182.34713298 -12.91353416 168.63192368 C-12.91646394 165.45426174 -12.91942559 162.27659984 -12.92243958 159.09893799 C-12.92318563 158.30912994 -12.92393168 157.51932189 -12.92470033 156.70558026 C-12.9373558 143.90920374 -12.97058068 131.11296611 -13.01224141 118.31665453 C-13.05464863 105.18355718 -13.07822779 92.05053096 -13.08345473 78.91736531 C-13.08687024 71.54168584 -13.09864165 64.16622341 -13.13155746 56.79061127 C-13.16246637 49.85325975 -13.16798161 42.91629266 -13.15617371 35.97888374 C-13.15595223 33.4303223 -13.16431813 30.88174372 -13.18182755 28.33324242 C-13.20440747 24.85801302 -13.1962745 21.38417059 -13.18034363 17.90893555 C-13.19422572 16.89667554 -13.2081078 15.88441553 -13.22241056 14.84148097 C-13.17160949 10.35425502 -13.06688232 7.13510637 -10.22184181 3.52991104 C-6.78768398 0.4327929 -4.45637769 0.01625796 0 0 Z " fill="#2BA93A" transform="translate(12.572341918945313,233.85955810546875)"/>
</svg>
