<?xml version="1.0" encoding="UTF-8"?>
<svg version="1.1" xmlns="http://www.w3.org/2000/svg" width="512" height="512">
<path d="M0 0 C1.16789062 1.01707031 1.16789062 1.01707031 2.359375 2.0546875 C3.17921875 2.75335938 3.9990625 3.45203125 4.84375 4.171875 C16.35462035 14.21707552 24.99683295 25.38368748 33.359375 38.0546875 C33.74681885 37.51577881 34.1342627 36.97687012 34.53344727 36.42163086 C36.3230428 33.9403528 38.12236612 31.46628431 39.921875 28.9921875 C40.53095703 28.14462891 41.14003906 27.29707031 41.76757812 26.42382812 C45.6006675 21.17107601 49.62852417 16.51088806 54.359375 12.0546875 C55.184375 11.2296875 56.009375 10.4046875 56.859375 9.5546875 C57.684375 8.7296875 58.509375 7.9046875 59.359375 7.0546875 C59.85824219 6.52101563 60.35710937 5.98734375 60.87109375 5.4375 C65.55719913 0.52200485 70.64897516 -3.28500119 76.359375 -6.9453125 C77.38933594 -7.60789062 78.41929687 -8.27046875 79.48046875 -8.953125 C103.22074074 -23.389406 130.53459027 -26.35349056 157.359375 -19.9453125 C158.05627441 -19.77902344 158.75317383 -19.61273438 159.47119141 -19.44140625 C190.91894445 -11.64265234 218.13968737 8.08863203 235.55859375 35.4375 C253.73202856 65.83040621 256.45137492 102.4987375 248.0703125 136.48046875 C245.17736959 147.47265936 241.3767252 157.86311584 236.359375 168.0546875 C236.02566895 168.73982422 235.69196289 169.42496094 235.34814453 170.13085938 C219.60568652 202.10015871 193.7515437 232.22033889 165.7421875 254.16796875 C163.47562893 255.96263726 161.35903456 257.84563829 159.234375 259.8046875 C152.31506054 266.01117738 144.80423972 271.50179956 137.359375 277.0546875 C136.64604004 277.58755371 135.93270508 278.12041992 135.19775391 278.66943359 C111.61851748 296.19855667 86.59161548 311.75915033 60.76318359 325.74560547 C59.05850808 326.67394897 57.35878652 327.61141544 55.66259766 328.55517578 C52.8619151 330.11316172 50.04962229 331.64820681 47.234375 333.1796875 C46.36949463 333.66574463 45.50461426 334.15180176 44.61352539 334.65258789 C39.58362813 337.3506152 35.14740862 339.34791566 29.359375 338.0546875 C25.58609669 336.70608302 22.05633502 334.98845322 18.484375 333.1796875 C17.4742334 332.68009521 16.4640918 332.18050293 15.42333984 331.66577148 C12.38962729 330.15178668 9.37202465 328.61010961 6.359375 327.0546875 C5.51890625 326.62269043 4.6784375 326.19069336 3.8125 325.74560547 C-18.72054062 314.03607215 -44.77603133 297.92671857 -55.640625 274.0546875 C-58.89098011 262.95692407 -57.46163981 249.36709492 -52.640625 239.0546875 C-52.14304688 237.98863281 -51.64546875 236.92257812 -51.1328125 235.82421875 C-46.97242623 227.57117343 -41.78117369 219.96389554 -35.06738281 213.55224609 C-30.12730277 208.5516331 -29.73022286 204.28008966 -29.515625 197.4296875 C-29.39115941 195.37057223 -29.25815653 193.31195754 -29.1171875 191.25390625 C-29.04661133 190.2179834 -28.97603516 189.18206055 -28.90332031 188.11474609 C-26.92362496 165.05387103 -19.98660446 138.43780912 -1.953125 122.7109375 C18.8750941 106.53583118 39.41353573 101.43023207 65.546875 100.1796875 C77.15808182 99.57770065 88.49413134 98.3943211 99.94799805 96.28759766 C113.80599694 93.83382621 113.80599694 93.83382621 119.859375 97.6171875 C122.61391157 102.09330943 122.69765582 106.1872685 121.78271484 111.23803711 C121.019096 114.39793588 120.21339993 117.54151115 119.35879517 120.67800903 C118.39316469 124.22519197 117.47375286 127.78426516 116.5546875 131.34375 C116.36665054 132.06899368 116.17861359 132.79423737 115.98487854 133.54145813 C114.11245497 140.85053391 112.62839393 148.21495891 111.171875 155.6171875 C106.80181239 177.33722377 99.65930165 195.07063222 85.359375 212.0546875 C84.74835938 212.81523437 84.13734375 213.57578125 83.5078125 214.359375 C74.06831663 225.04638133 58.98521513 229.65800246 45.359375 232.0546875 C44.70372559 232.17038086 44.04807617 232.28607422 43.37255859 232.40527344 C21.3736057 236.02256894 -1.60685025 234.59617336 -23.640625 232.0546875 C-24.07761719 232.9509082 -24.07761719 232.9509082 -24.5234375 233.86523438 C-25.74225623 236.25386339 -27.15071265 238.49629981 -28.56103516 240.77514648 C-33.44779441 248.83023202 -36.56719192 256.30997257 -35.015625 265.9296875 C-26.82419254 284.54657945 -4.97532229 295.33983553 11.98974609 304.73339844 C14.38428345 306.06857628 16.75645377 307.43853802 19.12890625 308.8125 C20.64230627 309.66570159 22.15659264 310.51733341 23.671875 311.3671875 C24.35894531 311.77090576 25.04601562 312.17462402 25.75390625 312.59057617 C28.73962543 314.2245021 30.72918256 315.14572512 34.14453125 314.65234375 C38.97719569 312.25069156 43.75122216 309.77261581 48.484375 307.1796875 C49.55478027 306.59453369 50.62518555 306.00937988 51.72802734 305.40649414 C67.18240112 296.90348988 82.05766465 287.70258315 96.734375 277.9296875 C97.35886536 277.51411591 97.98335571 277.09854431 98.62677002 276.67037964 C120.87189367 261.83724293 141.96490802 245.81345031 161.57421875 227.6171875 C164.07042795 225.320535 166.6084171 223.08798351 169.171875 220.8671875 C172.57190625 217.85712399 175.57453104 214.69161829 178.5 211.22265625 C180.61071507 208.76163342 182.82792749 206.4185026 185.046875 204.0546875 C211.67679048 174.72143211 231.61034282 136.58984538 230.640625 96.14453125 C228.99608052 68.07078661 218.27125527 42.93295849 197.078125 24.05078125 C177.05364284 7.1163538 149.71693558 -3.11209394 123.359375 -0.9453125 C98.93271975 2.30989259 77.41728918 15.67271013 62.359375 35.0546875 C55.42825968 44.58735782 49.33501078 54.42016032 44.17578125 65.015625 C42.23780663 68.25808576 40.51246388 70.00369709 37.359375 72.0546875 C32.95889803 72.77476555 31.09455838 72.56164354 27.40234375 70.015625 C23.87138861 66.91882621 22.10465689 63.30472869 20.109375 59.1171875 C13.84935572 46.69228194 5.96547053 36.11989789 -3.640625 26.0546875 C-4.23875 25.38179687 -4.836875 24.70890625 -5.453125 24.015625 C-19.52946786 8.7864782 -39.66436311 0.43580711 -60.09765625 -1.2265625 C-85.23460205 -1.91603301 -110.85474883 7.41379167 -129.640625 24.0546875 C-130.30964844 24.58191406 -130.97867188 25.10914063 -131.66796875 25.65234375 C-150.57854344 40.89314355 -160.72418034 65.22350911 -163.4296875 88.84033203 C-167.20218436 128.44281641 -149.3891071 165.69125846 -125.078125 195.8046875 C-119.00594666 203.08701779 -112.75663424 210.16974454 -105.85546875 216.6796875 C-104.640625 218.0546875 -104.640625 218.0546875 -104.640625 220.0546875 C-104.09277344 220.27382813 -103.54492188 220.49296875 -102.98046875 220.71875 C-99.89337908 222.48132874 -97.63791497 224.88437749 -95.203125 227.4296875 C-92.55370696 230.17832092 -89.94883896 232.81678347 -86.91796875 235.15625 C-84.60658861 237.08306089 -83.58679681 238.22704762 -82.640625 241.0546875 C-82.41711284 245.28651775 -82.94962578 248.94908875 -85.203125 252.5546875 C-88.60480452 254.64802874 -91.70645936 255.32292607 -95.640625 255.0546875 C-102.03756566 252.64074763 -106.28195458 247.60187968 -110.94921875 242.78125 C-113.11209987 240.59011644 -115.28031725 238.5849184 -117.640625 236.6171875 C-123.13313714 231.90613034 -127.84917108 226.45723927 -132.640625 221.0546875 C-133.36838135 220.24402832 -133.36838135 220.24402832 -134.11083984 219.41699219 C-161.61122765 188.7117061 -184.19202704 149.18474491 -185.640625 107.0546875 C-185.6921875 105.90742188 -185.74375 104.76015625 -185.796875 103.578125 C-186.60655195 69.90905861 -175.26783546 39.21108191 -152.23657227 14.67578125 C-112.94742933 -25.95482043 -45.15588843 -37.92504355 0 0 Z M9.359375 141.0546875 C1.15283829 150.13658812 -2.19585044 161.58277049 -5.015625 173.2421875 C-5.19569092 173.9854126 -5.37575684 174.7286377 -5.5612793 175.49438477 C-6.61770958 179.34845809 -6.61770958 179.34845809 -5.640625 183.0546875 C-5.0014917 182.40508057 -4.3623584 181.75547363 -3.70385742 181.08618164 C-1.27954701 178.62733503 1.14954369 176.17340259 3.58178711 173.72241211 C4.62403738 172.67024022 5.66447103 171.61626502 6.70288086 170.56030273 C12.82366636 164.33883668 19.01922896 158.47240728 25.875 153.04492188 C28.50595871 150.9372592 31.02561862 148.72935865 33.546875 146.4921875 C40.64316506 140.52528047 48.41173824 135.55672429 56.1706543 130.49975586 C57.68912964 129.50794312 57.68912964 129.50794312 59.23828125 128.49609375 C60.1516626 127.90513916 61.06504395 127.31418457 62.00610352 126.70532227 C64.03597278 125.28152871 65.68836979 123.8743648 67.359375 122.0546875 C45.66421715 121.28495128 25.82955904 126.12944535 9.359375 141.0546875 Z M83.484375 137.5546875 C82.71424072 138.01246582 81.94410645 138.47024414 81.15063477 138.94189453 C52.94570122 155.82428048 29.09624902 177.26131092 5.921875 200.3671875 C5.13481171 201.15023254 5.13481171 201.15023254 4.33184814 201.94909668 C2.83935887 203.43578999 1.35064158 204.92614613 -0.13671875 206.41796875 C-1.43887329 207.72181519 -1.43887329 207.72181519 -2.76733398 209.05200195 C-4.7544784 210.71936245 -4.7544784 210.71936245 -4.640625 212.0546875 C32.79768896 214.97271532 32.79768896 214.97271532 66.359375 201.0546875 C70.03327438 197.26580766 73.23112421 193.30172243 76.359375 189.0546875 C77.225625 187.88292969 77.225625 187.88292969 78.109375 186.6875 C87.55343584 172.47222092 93.359375 149.89973054 93.359375 133.0546875 C89.69232394 133.0546875 86.57405366 135.71066978 83.484375 137.5546875 Z " fill="#1A6B2F" transform="translate(223.640625,94.9453125)"/>
</svg>
