<?xml version="1.0" encoding="UTF-8"?>
<svg version="1.1" xmlns="http://www.w3.org/2000/svg" width="512" height="512">
<path d="M0 0 C1.862154 -0.00457824 3.72430632 -0.00988858 5.5864563 -0.0158844 C9.4641207 -0.02474907 13.34157842 -0.02246918 17.21923828 -0.01245117 C22.13623659 -0.00097235 27.05251548 -0.02119089 31.96941948 -0.05036831 C35.80811941 -0.06890168 39.64665235 -0.0684041 43.48538589 -0.06273079 C45.29588962 -0.06257965 47.10640623 -0.06844802 48.9168663 -0.08102226 C78.53331081 -0.25781422 103.44696137 9.01318598 124.9453125 29.80859375 C136.56101469 41.73426552 145.18099538 57.22723657 149.2578125 73.43359375 C149.50911926 74.41120667 149.50911926 74.41120667 149.76550293 75.40856934 C151.94004735 85.30658213 151.50799891 95.3395281 151.453125 105.4140625 C151.44938886 107.43858194 151.44654473 109.46310321 151.44454956 111.48762512 C151.43696044 116.78281764 151.41735313 122.0778982 151.3951416 127.37304688 C151.3745808 132.78969814 151.36552607 138.20636773 151.35546875 143.62304688 C151.33410227 154.22661134 151.30002415 164.83009319 151.2578125 175.43359375 C149.37263154 176.39235265 147.48553349 177.34734253 145.59765625 178.30078125 C144.02165649 179.09911377 144.02165649 179.09911377 142.41381836 179.91357422 C137.80965096 182.13106832 133.10751354 183.83915433 128.2578125 185.43359375 C127.23945313 185.7689917 126.22109375 186.10438965 125.171875 186.44995117 C61.53506967 206.69758785 -8.71345952 202.33874764 -72.8046875 186.43359375 C-74.66516724 185.97206909 -74.66516724 185.97206909 -76.56323242 185.5012207 C-83.54914803 183.69787644 -90.37867287 181.60642349 -97.21264648 179.30078125 C-98.44947803 178.88590454 -98.44947803 178.88590454 -99.71129608 178.46264648 C-101.72212911 177.78789047 -103.73223492 177.11096793 -105.7421875 176.43359375 C-105.81223317 165.54877183 -105.86527221 154.66400506 -105.89762402 143.77900219 C-105.91316479 138.72262194 -105.93418645 133.66639784 -105.96850586 128.61010742 C-106.00151879 123.71469438 -106.01912717 118.81942987 -106.02681923 113.92391396 C-106.03228859 112.07235697 -106.04296416 110.2208065 -106.05937767 108.36931419 C-106.28852479 81.40564319 -101.66133166 56.58405898 -83.7421875 35.43359375 C-83.05125 34.60859375 -82.3603125 33.78359375 -81.6484375 32.93359375 C-60.27228092 8.24563826 -31.63065687 -0.06929214 0 0 Z " fill="#1A6B2F" transform="translate(236.7421875,272.56640625)"/>
<path d="M0 0 C1.60805219 0.00119601 3.2161051 0.00164407 4.82415771 0.00138855 C8.15869656 0.0029366 11.49312548 0.01110399 14.82763672 0.0246582 C19.10132344 0.04181253 23.37489202 0.04546689 27.64860916 0.04471302 C30.95309577 0.04498444 34.25755657 0.05045839 37.56203461 0.05771446 C39.13930822 0.06089199 40.71658475 0.06286639 42.29386139 0.06360817 C44.4853469 0.06577208 46.67670572 0.07451254 48.86816406 0.08520508 C50.73556244 0.09092278 50.73556244 0.09092278 52.64068604 0.09675598 C55.671875 0.23046875 55.671875 0.23046875 58.671875 1.23046875 C59.98340526 3.85352926 60.1426689 6.46907544 60.52026367 9.34887695 C63.27810809 29.73389396 71.05325272 47.18566377 85.546875 61.90234375 C87.671875 64.23046875 87.671875 64.23046875 87.671875 66.23046875 C86.76308594 66.57078125 85.85429687 66.91109375 84.91796875 67.26171875 C53.59811186 79.23076914 29.67112536 99.14853186 15.671875 130.23046875 C6.35174141 152.27915326 6.10192124 175.67296348 5.671875 199.23046875 C-28.65596576 197.47031601 -62.7207414 190.90919269 -95.60546875 181.03515625 C-97.45295715 180.48396118 -97.45295715 180.48396118 -99.33776855 179.92163086 C-102.3352759 179.02696111 -105.33203603 178.12987463 -108.328125 177.23046875 C-108.42134063 165.26806056 -108.49214938 153.30574063 -108.53537369 141.34304142 C-108.55613282 135.78658664 -108.58423394 130.23038273 -108.62988281 124.67407227 C-108.67376096 119.29885374 -108.69734956 113.92387451 -108.70763397 108.54849052 C-108.71495078 106.51105426 -108.72923553 104.47362914 -108.75104523 102.43629646 C-109.03367549 74.90707917 -101.86177471 51.07693815 -82.6640625 30.6015625 C-59.60972667 7.20025506 -31.92471102 -0.15939994 0 0 Z " fill="#1A6B2F" transform="translate(108.328125,194.76953125)"/>
<path d="M0 0 C8.73740391 -0.04668927 17.47476376 -0.08205264 26.21226597 -0.10362434 C30.27103193 -0.11398649 34.32971148 -0.12800419 38.38842773 -0.15087891 C42.31772121 -0.17288132 46.24693248 -0.18462524 50.17628288 -0.18975449 C51.66271188 -0.19340179 53.14913725 -0.20052103 54.63553047 -0.21146011 C82.31307133 -0.40673515 108.21145754 5.752564 129 25 C129.83789062 25.74636719 130.67578125 26.49273437 131.5390625 27.26171875 C147.99559842 42.6737996 159.21384333 65.46394403 160.34533691 88.09793091 C160.50697826 93.73405654 160.45165126 99.36660019 160.390625 105.00390625 C160.38314355 107.06468653 160.37745966 109.12547403 160.37347412 111.18626404 C160.35836745 116.55057206 160.31921881 121.91443107 160.2746582 127.27856445 C160.23337834 132.77614268 160.21539398 138.27379508 160.1953125 143.77148438 C160.15270669 154.51451773 160.08464208 165.2572212 160 176 C157.42861019 177.13055349 154.85668027 178.25984912 152.28442383 179.38842773 C151.19693218 179.86679203 151.19693218 179.86679203 150.08747101 180.35482025 C127.01041443 190.47267533 101.96153712 195.31643852 77 198 C75.70835937 198.14574463 75.70835937 198.14574463 74.390625 198.29443359 C67.24879523 199.03364394 60.17574331 199.10267359 53 199 C52.9906543 198.01418945 52.98130859 197.02837891 52.97167969 196.01269531 C52.51765096 155.13569665 46.6489667 121.03068784 16 91 C3.00996154 79.6208634 -11.86058614 71.91314732 -28 66 C-26.470548 62.50640965 -24.37383952 59.98952335 -21.875 57.125 C-9.23027035 41.8374812 -2.59970306 23.92274117 -0.46386719 4.26855469 C-0.37627136 3.4666571 -0.28867554 2.66475952 -0.19842529 1.83856201 C-0.13294495 1.23183655 -0.0674646 0.62511108 0 0 Z " fill="#1A6B2F" transform="translate(352,195)"/>
<path d="M0 0 C1.55849571 1.33476387 3.10125719 2.68819606 4.625 4.0625 C5.30949219 4.65417969 5.99398437 5.24585938 6.69921875 5.85546875 C18.94253942 17.13664241 27.49718054 34.17428003 28.84643555 50.78930664 C29.77822598 74.1834054 25.02698568 94.65359347 9.17578125 112.453125 C-5.62277664 127.59161914 -24.78259214 135.63392388 -45.875 136.3125 C-67.71488839 136.06463241 -87.02973854 127.53585213 -102.375 112.0625 C-116.74709137 96.92283838 -122.7875146 77.40151886 -122.58984375 56.84375 C-121.43756591 36.56366007 -113.01808395 18.1433713 -98.375 4.0625 C-70.89452337 -19.92710367 -29.27817168 -22.75204486 0 0 Z " fill="#1A6B2F" transform="translate(306.375,132.9375)"/>
<path d="M0 0 C16.74397827 13.41780961 27.28966517 31.09715999 30.0078125 52.61328125 C31.11128315 63.74005487 31.11128315 63.74005487 27.4375 68.5 C25.92201666 69.92665395 24.35491263 71.29975032 22.75 72.625 C8.22244755 85.44466893 -0.28747245 103.97674801 -4.23828125 122.703125 C-6.1155239 126.66803867 -9.05319912 127.93705685 -12.875 129.6875 C-13.59993652 130.02845703 -14.32487305 130.36941406 -15.07177734 130.72070312 C-32.94545147 138.84617204 -54.10790547 139.14130313 -72.5625 132.5 C-81.57720508 128.90398294 -89.35162955 124.00367475 -96.5625 117.5 C-97.24699219 116.90832031 -97.93148437 116.31664062 -98.63671875 115.70703125 C-112.8086434 102.64881384 -120.63852847 83.52988173 -121.5625 64.5 C-121.7187065 41.82774229 -114.00510504 22.48942287 -98.2578125 6.1015625 C-71.82641922 -19.28990711 -29.45249318 -21.52015088 0 0 Z " fill="#1A6B2F" transform="translate(173.5625,54.5)"/>
<path d="M0 0 C16.648399 13.34121703 27.37874956 31.04141303 29.97265625 52.484375 C31.98745308 73.3225508 26.53087737 92.92362841 13.2734375 109.1484375 C0.07106512 124.25630692 -16.54813604 134.86150669 -36.98901367 136.72070312 C-39.5384156 136.83898856 -42.07288487 136.87952629 -44.625 136.875 C-45.53386963 136.87411377 -46.44273926 136.87322754 -47.37915039 136.87231445 C-57.41916453 136.69892243 -69.08602092 135.22501644 -77.5625 129.5 C-78.5489588 126.95062053 -79.10235158 124.95496767 -79.5625 122.3125 C-79.87419112 120.86168944 -80.19343547 119.41248465 -80.51953125 117.96484375 C-80.68533691 117.22347168 -80.85114258 116.48209961 -81.02197266 115.71826172 C-86.60951469 92.78763528 -101.84068003 73.22927888 -121.5625 60.5 C-119.43014699 36.81965866 -111.79773714 17.52715341 -93.33984375 1.62890625 C-66.13582389 -19.22368281 -27.85196952 -20.35069095 0 0 Z " fill="#1A6B2F" transform="translate(429.5625,54.5)"/>
</svg>
